<?xml version="1.0" encoding="UTF-8"?>
<!DOCTYPE svg PUBLIC "-//W3C//DTD SVG 1.1//EN" "http://www.w3.org/Graphics/SVG/1.1/DTD/svg11.dtd">
<svg xmlns="http://www.w3.org/2000/svg" version="1.1" width="1080px" height="1080px" style="shape-rendering:geometricPrecision; text-rendering:geometricPrecision; image-rendering:optimizeQuality; fill-rule:evenodd; clip-rule:evenodd" xmlns:xlink="http://www.w3.org/1999/xlink">
<g><path style="opacity:1" fill="#fefefe" d="M -0.5,-0.5 C 359.5,-0.5 719.5,-0.5 1079.5,-0.5C 1079.5,359.5 1079.5,719.5 1079.5,1079.5C 719.5,1079.5 359.5,1079.5 -0.5,1079.5C -0.5,719.5 -0.5,359.5 -0.5,-0.5 Z"/></g>
<g><path style="opacity:1" fill="#ec9444" d="M 979.5,346.5 C 820.624,347.163 661.957,346.496 503.5,344.5C 500.386,313.804 497.052,283.137 493.5,252.5C 451.165,252.333 408.832,252.5 366.5,253C 350.484,259.021 343.651,270.521 346,287.5C 348.833,299.667 356.333,307.167 368.5,310C 392.831,310.5 417.164,310.667 441.5,310.5C 443.149,327.844 444.983,345.178 447,362.5C 447.333,461.5 447.667,560.5 448,659.5C 450.072,666.573 454.572,671.406 461.5,674C 555.499,674.005 649.499,673.672 743.5,673C 807.872,672.659 872.205,671.659 936.5,670C 942.492,667.341 946.325,662.841 948,656.5C 966.288,578.77 984.788,501.103 1003.5,423.5C 1029.8,540.426 1014.96,652.092 959,758.5C 878.949,897.777 759.116,979.61 599.5,1004C 435.918,1020.37 297.751,969.207 185,850.5C 110.377,765.862 69.8769,666.862 63.5,553.5C 175.834,553.667 288.167,553.5 400.5,553C 414.785,547.482 419.952,537.315 416,522.5C 412.472,514.968 406.639,510.468 398.5,509C 286.834,508.5 175.167,508.333 63.5,508.5C 72.22,364.886 131.887,247.72 242.5,157C 349.67,74.617 470.67,41.617 605.5,58C 764.062,84.3317 882.562,167.165 961,306.5C 967.999,319.495 974.166,332.829 979.5,346.5 Z"/></g>
<g><path style="opacity:1" fill="#135f82" d="M 503.5,344.5 C 503.5,345.5 503.5,346.5 503.5,347.5C 668.833,347.5 834.167,347.5 999.5,347.5C 1009.85,349.384 1015.52,355.551 1016.5,366C 1012.89,385.338 1008.55,404.505 1003.5,423.5C 984.788,501.103 966.288,578.77 948,656.5C 946.325,662.841 942.492,667.341 936.5,670C 872.205,671.659 807.872,672.659 743.5,673C 649.499,673.672 555.499,674.005 461.5,674C 454.572,671.406 450.072,666.573 448,659.5C 447.667,560.5 447.333,461.5 447,362.5C 444.983,345.178 443.149,327.844 441.5,310.5C 417.164,310.667 392.831,310.5 368.5,310C 356.333,307.167 348.833,299.667 346,287.5C 343.651,270.521 350.484,259.021 366.5,253C 408.832,252.5 451.165,252.333 493.5,252.5C 497.052,283.137 500.386,313.804 503.5,344.5 Z"/></g>
<g><path style="opacity:1" fill="#807b67" d="M 503.5,344.5 C 661.957,346.496 820.624,347.163 979.5,346.5C 986.354,346.176 993.021,346.509 999.5,347.5C 834.167,347.5 668.833,347.5 503.5,347.5C 503.5,346.5 503.5,345.5 503.5,344.5 Z"/></g>
<g><path style="opacity:1" fill="#1e6081" d="M 222.5,371.5 C 281.168,371.333 339.834,371.5 398.5,372C 414.096,375.66 420.263,385.493 417,401.5C 414.2,410.629 408.034,415.796 398.5,417C 339.833,417.667 281.167,417.667 222.5,417C 208.413,412.134 202.913,402.301 206,387.5C 208.778,379.22 214.278,373.887 222.5,371.5 Z"/></g>
<g><path style="opacity:1" fill="#155f82" d="M 63.5,508.5 C 175.167,508.333 286.834,508.5 398.5,509C 406.639,510.468 412.472,514.968 416,522.5C 419.952,537.315 414.785,547.482 400.5,553C 288.167,553.5 175.834,553.667 63.5,553.5C 51.0951,556.294 40.9284,552.961 33,543.5C 26.6181,531.071 28.7848,520.571 39.5,512C 41.9573,510.438 44.624,509.438 47.5,509C 52.8229,508.501 58.1563,508.334 63.5,508.5 Z"/></g>
<g><path style="opacity:1" fill="#145f82" d="M 220.5,651.5 C 280.834,651.333 341.168,651.5 401.5,652C 414.587,656.998 419.754,666.498 417,680.5C 415.222,688.575 410.389,693.742 402.5,696C 341.833,696.667 281.167,696.667 220.5,696C 208.184,690.538 203.351,681.038 206,667.5C 208.626,660.046 213.46,654.712 220.5,651.5 Z"/></g>
<g><path style="opacity:1" fill="#012a4c" d="M 503.5,693.5 C 543.726,690.615 571.559,707.615 587,744.5C 596.295,781.295 585.461,810.462 554.5,832C 523.037,848.33 493.37,845.664 465.5,824C 445.473,804.253 437.64,780.419 442,752.5C 450.834,720.528 471.334,700.861 503.5,693.5 Z"/></g>
<g><path style="opacity:1" fill="#012a4c" d="M 715.5,693.5 C 755.867,690.924 783.7,708.257 799,745.5C 807.883,782.871 796.383,812.038 764.5,833C 726.03,850.955 693.197,843.789 666,811.5C 644.059,774.131 648.559,740.298 679.5,710C 690.504,701.993 702.504,696.493 715.5,693.5 Z"/></g>
</svg>
